<svg width="109" height="17" viewBox="0 0 109 17" xmlns="http://www.w3.org/2000/svg" xmlns:xlink="http://www.w3.org/1999/xlink"><title>Page 1</title><defs><path id="a" d="M0 17.537h108.453V.999H0z"/></defs><g transform="translate(0 -1)" fill="none" fill-rule="evenodd"><path d="M11.766 15.6a9.062 9.062 0 0 1-1.225.652c-.94.386-1.942.59-2.962.59a7.611 7.611 0 0 1-2.943-.59 7.532 7.532 0 0 1-2.41-1.632A7.475 7.475 0 0 1 0 9.28C0 8.26.205 7.26.593 6.323a7.722 7.722 0 0 1 1.633-2.406 7.16 7.16 0 0 1 2.41-1.612c.92-.408 1.921-.591 2.943-.591 1.02 0 2.022.183 2.962.591.102.041.225.102.327.143v2.793a5.148 5.148 0 0 0-3.289-1.16c-1.39 0-2.698.528-3.677 1.528a5.156 5.156 0 0 0 0 7.339c.98.98 2.287 1.53 3.677 1.53a5.17 5.17 0 0 0 3.676-1.53 6.3 6.3 0 0 0 .51-.572V15.6zM28.934 16.843h-2.369v-6.525h-6.046v6.525h-2.37V1.715h2.37v6.461h6.046V1.715h2.369z" fill="#221F20"/><mask id="b" fill="#fff"><use xlink:href="#a"/></mask><path fill="#221F20" mask="url(#b)" d="M36.195 16.842h2.369V1.713h-2.37zM58.388 7.118v9.725h-2.37V1l9.52 10.42V1.713h2.389v15.824zM86.893 11.134v4.098l-.532.367c-.02 0-.02 0-.04.02-.021.02-.062.042-.082.042-.02.02-.041.04-.062.04-.02.02-.04.041-.081.041a.289.289 0 0 1-.082.061c-.02.02-.041.02-.062.041-.018.02-.04.02-.06.041-.04.02-.062.02-.101.04-.022.021-.041.021-.063.042a.16.16 0 0 1-.103.039c-.018.022-.018.022-.04.042h-.041a.518.518 0 0 1-.102.061c-.04.02-.103.04-.144.062l-.018.02a7.732 7.732 0 0 1-2.717.651h-.39a7.293 7.293 0 0 1-2.39-.386h-.02c-.08-.022-.143-.06-.223-.081-.102-.041-.204-.084-.308-.123a4.286 4.286 0 0 1-.734-.367 6.708 6.708 0 0 1-1.676-1.265 7.502 7.502 0 0 1-1.633-2.405 7.286 7.286 0 0 1-.552-2.181c-.02-.245-.041-.51-.041-.755V8.89c.061-.877.245-1.754.593-2.568a7.751 7.751 0 0 1 1.633-2.406 7.16 7.16 0 0 1 2.41-1.612c.92-.408 1.921-.591 2.941-.591h.39c.062 0 .121 0 .182.022.88.06 1.738.263 2.553.63 0 0 0 .021.023.021l.12.061h.023v2.793a4.878 4.878 0 0 0-1.022-.652 5.839 5.839 0 0 0-.94-.347c-.02 0-.041 0-.062-.019h-.061c-.02-.02-.04-.02-.082-.02 0 0-.02 0-.04-.022-.082-.02-.185-.02-.266-.04h-.04c-.022 0-.062-.02-.083-.02h-.04c-.02 0-.06 0-.083-.022h-.182c-.022 0-.04-.019-.063-.019h-.327c-.959 0-1.878.243-2.674.733a.425.425 0 0 1-.102.061 4.425 4.425 0 0 0-.9.735c-.08.081-.183.163-.265.265 0 0 0 .02-.02.02-.102.123-.184.245-.266.367l-.04.041c-.042.06-.083.12-.123.184a.15.15 0 0 0-.041.08c-.307.491-.511 1-.634 1.552-.02.018-.02.018-.02.039-.041.204-.082.408-.102.612v.224c-.02.102-.02.184-.02.286 0 .081 0 .163.02.263.02.39.081.777.183 1.143a5.191 5.191 0 0 0 1.329 2.262 5.17 5.17 0 0 0 3.675 1.53h.143c.022 0 .041 0 .063-.02H82.684c0-.02.022-.02.041-.02h.123c.143-.019.306-.062.45-.08.02 0 .02 0 .04-.022.02 0 .061 0 .082-.02h.061c.02-.021.041-.021.062-.021.02-.019.06-.019.081-.019.02 0 .041-.022.041-.022.286-.082.572-.182.838-.325h.02v-2.794h-2.859v-2.14h5.229v2.14zM97.198 5.609a5.164 5.164 0 0 0 0 7.338 5.175 5.175 0 0 0 3.677 1.53 5.17 5.17 0 0 0 3.675-1.53 5.156 5.156 0 0 0 0-7.338 5.183 5.183 0 0 0-7.352 0m.736 10.643a7.495 7.495 0 0 1-2.41-1.632 7.48 7.48 0 0 1-2.228-5.341c0-1.018.204-2.018.593-2.956a7.992 7.992 0 0 1 1.635-2.406 7.438 7.438 0 0 1 2.41-1.612 7.567 7.567 0 0 1 2.94-.591c1.021 0 2.023.204 2.963.591a7.944 7.944 0 0 1 2.41 1.612 7.891 7.891 0 0 1 1.612 2.406c.389.938.593 1.938.593 2.956 0 1.02-.204 2.018-.593 2.936a7.392 7.392 0 0 1-1.612 2.405 8.008 8.008 0 0 1-2.41 1.632c-.94.386-1.942.59-2.962.59a7.596 7.596 0 0 1-2.941-.59"/></g></svg>